<svg width="1200" height="630" viewBox="0 0 1200 630" fill="none" xmlns="http://www.w3.org/2000/svg">
  <defs>
    <linearGradient id="bg-grad" x1="0" y1="0" x2="1" y2="1">
      <stop offset="0%" stop-color="#0F172A"/>
      <stop offset="100%" stop-color="#1D4ED8"/>
    </linearGradient>
    <linearGradient id="logo-grad" x1="0" y1="0" x2="1" y2="1">
      <stop offset="0%" stop-color="#7c3aed"/>
      <stop offset="100%" stop-color="#38bdf8"/>
    </linearGradient>
    <linearGradient id="glow" x1="0" y1="0" x2="1" y2="1">
      <stop offset="0%" stop-color="#ffffff" stop-opacity="0.8"/>
      <stop offset="100%" stop-color="#ffffff" stop-opacity="0"/>
    </linearGradient>
  </defs>
  <rect width="1200" height="630" rx="60" fill="url(#bg-grad)"/>
  <rect x="75" y="75" width="450" height="450" rx="80" fill="rgba(255,255,255,0.08)"/>
  <rect x="90" y="90" width="420" height="420" rx="80" fill="url(#logo-grad)" opacity="0.16"/>
  <path d="M228 180L332 284H278L382 388L278 284H332L228 180Z" fill="#ffffff"/>
  <path d="M198 210L310 322H256L360 426L256 322H310L198 210Z" fill="#ffffff" opacity="0.22"/>
  <circle cx="400" cy="180" r="40" fill="url(#glow)"/>
  <rect x="620" y="170" width="470" height="280" rx="40" fill="rgba(255,255,255,0.08)"/>
  <text x="660" y="260" fill="#ffffff" font-family="Inter, sans-serif" font-size="72" font-weight="700">Jeya Varshani</text>
  <text x="660" y="340" fill="#cbd5e1" font-family="Inter, sans-serif" font-size="40" font-weight="500">Software Engineer & Machine Learning</text>
  <text x="660" y="400" fill="#cbd5e1" font-family="Inter, sans-serif" font-size="32" font-weight="400">Portfolio</text>
  <rect x="620" y="446" width="470" height="4" rx="2" fill="#38bdf8"/>
</svg>
